<svg xmlns="http://www.w3.org/2000/svg" xmlns:xlink="http://www.w3.org/1999/xlink" width="500" zoomAndPan="magnify" viewBox="0 0 375 374.999991" height="500" preserveAspectRatio="xMidYMid meet" version="1.2"><defs><clipPath id="bfab88fcdd"><path d="M 57.613281 54.21875 L 133.882812 54.21875 L 133.882812 130.492188 L 57.613281 130.492188 Z M 57.613281 54.21875 "/></clipPath><clipPath id="ad23d8d8e4"><path d="M 95.75 54.21875 C 74.6875 54.21875 57.613281 71.292969 57.613281 92.355469 C 57.613281 113.417969 74.6875 130.492188 95.75 130.492188 C 116.808594 130.492188 133.882812 113.417969 133.882812 92.355469 C 133.882812 71.292969 116.808594 54.21875 95.75 54.21875 Z M 95.75 54.21875 "/></clipPath><clipPath id="584305deb2"><path d="M 217.089844 253.503906 L 314.386719 253.503906 L 314.386719 350.800781 L 217.089844 350.800781 Z M 217.089844 253.503906 "/></clipPath><clipPath id="18f9c45d68"><path d="M 265.738281 253.503906 C 238.871094 253.503906 217.089844 275.285156 217.089844 302.152344 C 217.089844 329.023438 238.871094 350.800781 265.738281 350.800781 C 292.605469 350.800781 314.386719 329.023438 314.386719 302.152344 C 314.386719 275.285156 292.605469 253.503906 265.738281 253.503906 Z M 265.738281 253.503906 "/></clipPath><clipPath id="5af0c8082d"><path d="M 179.0625 114.875 L 231.613281 114.875 L 231.613281 167.425781 L 179.0625 167.425781 Z M 179.0625 114.875 "/></clipPath><clipPath id="4afec337aa"><path d="M 205.339844 114.875 C 190.828125 114.875 179.0625 126.636719 179.0625 141.148438 C 179.0625 155.660156 190.828125 167.425781 205.339844 167.425781 C 219.851562 167.425781 231.613281 155.660156 231.613281 141.148438 C 231.613281 126.636719 219.851562 114.875 205.339844 114.875 Z M 205.339844 114.875 "/></clipPath><clipPath id="d811ad29f2"><path d="M 189.464844 26.929688 L 265.738281 26.929688 L 265.738281 103.199219 L 189.464844 103.199219 Z M 189.464844 26.929688 "/></clipPath><clipPath id="35ee55779f"><path d="M 227.601562 26.929688 C 206.539062 26.929688 189.464844 44.003906 189.464844 65.066406 C 189.464844 86.125 206.539062 103.199219 227.601562 103.199219 C 248.664062 103.199219 265.738281 86.125 265.738281 65.066406 C 265.738281 44.003906 248.664062 26.929688 227.601562 26.929688 Z M 227.601562 26.929688 "/></clipPath><clipPath id="b8f2bfae76"><path d="M 82.625 183.152344 L 147.179688 183.152344 L 147.179688 247.703125 L 82.625 247.703125 Z M 82.625 183.152344 "/></clipPath><clipPath id="9892f4d6f6"><path d="M 114.902344 183.152344 C 97.078125 183.152344 82.625 197.601562 82.625 215.425781 C 82.625 233.25 97.078125 247.703125 114.902344 247.703125 C 132.726562 247.703125 147.179688 233.25 147.179688 215.425781 C 147.179688 197.601562 132.726562 183.152344 114.902344 183.152344 Z M 114.902344 183.152344 "/></clipPath></defs><g id="a69dc0bd36"><g clip-rule="nonzero" clip-path="url(#bfab88fcdd)"><g clip-rule="nonzero" clip-path="url(#ad23d8d8e4)"><path style=" stroke:none;fill-rule:nonzero;fill:#f5f8f4;fill-opacity:1;" d="M 57.613281 54.21875 L 133.882812 54.21875 L 133.882812 130.492188 L 57.613281 130.492188 Z M 57.613281 54.21875 "/></g></g><g clip-rule="nonzero" clip-path="url(#584305deb2)"><g clip-rule="nonzero" clip-path="url(#18f9c45d68)"><path style=" stroke:none;fill-rule:nonzero;fill:#f5f8f4;fill-opacity:1;" d="M 217.089844 253.503906 L 314.386719 253.503906 L 314.386719 350.800781 L 217.089844 350.800781 Z M 217.089844 253.503906 "/></g></g><g clip-rule="nonzero" clip-path="url(#5af0c8082d)"><g clip-rule="nonzero" clip-path="url(#4afec337aa)"><path style=" stroke:none;fill-rule:nonzero;fill:#f5f8f4;fill-opacity:1;" d="M 179.0625 114.875 L 231.613281 114.875 L 231.613281 167.425781 L 179.0625 167.425781 Z M 179.0625 114.875 "/></g></g><g clip-rule="nonzero" clip-path="url(#d811ad29f2)"><g clip-rule="nonzero" clip-path="url(#35ee55779f)"><path style=" stroke:none;fill-rule:nonzero;fill:#f5f8f4;fill-opacity:1;" d="M 189.464844 26.929688 L 265.738281 26.929688 L 265.738281 103.199219 L 189.464844 103.199219 Z M 189.464844 26.929688 "/></g></g><g clip-rule="nonzero" clip-path="url(#b8f2bfae76)"><g clip-rule="nonzero" clip-path="url(#9892f4d6f6)"><path style=" stroke:none;fill-rule:nonzero;fill:#f5f8f4;fill-opacity:1;" d="M 82.625 183.152344 L 147.179688 183.152344 L 147.179688 247.703125 L 82.625 247.703125 Z M 82.625 183.152344 "/></g></g><path style="fill:none;stroke-width:15;stroke-linecap:round;stroke-linejoin:miter;stroke:#f5f8f4;stroke-opacity:1;stroke-miterlimit:4;" d="M 7.50039 7.502815 L 184.589559 7.501527 " transform="matrix(0.627837,0.409712,-0.409712,0.627837,127.017315,218.712554)"/><path style="fill:none;stroke-width:15;stroke-linecap:round;stroke-linejoin:miter;stroke:#f5f8f4;stroke-opacity:1;stroke-miterlimit:4;" d="M 7.49916 7.499475 L 124.854708 7.500376 " transform="matrix(0.121165,0.738174,-0.738174,0.121165,101.295247,102.293921)"/><path style="fill:none;stroke-width:15;stroke-linecap:round;stroke-linejoin:miter;stroke:#f5f8f4;stroke-opacity:1;stroke-miterlimit:4;" d="M 7.499397 7.49931 L 119.351605 7.498684 " transform="matrix(-0.585143,0.469157,-0.469157,-0.585143,201.566725,158.033838)"/><path style="fill:none;stroke-width:15;stroke-linecap:round;stroke-linejoin:miter;stroke:#f5f8f4;stroke-opacity:1;stroke-miterlimit:4;" d="M 7.502901 7.498663 L 116.954415 7.501641 " transform="matrix(-0.728414,0.167224,-0.167224,-0.728414,204.047305,76.953561)"/></g></svg>