<svg id="visual" viewBox="0 0 900 600" width="900" height="600" xmlns="http://www.w3.org/2000/svg" xmlns:xlink="http://www.w3.org/1999/xlink" version="1.1"><g stroke-width="1" stroke-linejoin="bevel"><path d="M500 291L473 400L604 322Z" fill="#dbdbdd" stroke="#dbdbdd"></path><path d="M473 400L607 409L604 322Z" fill="#dfe1e3" stroke="#dfe1e3"></path><path d="M473 400L574 478L607 409Z" fill="#e1e4e6" stroke="#e1e4e6"></path><path d="M698 399L684 321L607 409Z" fill="#e3e7e9" stroke="#e3e7e9"></path><path d="M607 409L684 321L604 322Z" fill="#dfe1e3" stroke="#dfe1e3"></path><path d="M611 191L524 184L500 291Z" fill="#f5f8f4" stroke="#f5f8f4"></path><path d="M500 291L381 371L473 400Z" fill="#e7eded" stroke="#e7eded"></path><path d="M473 400L487 528L574 478Z" fill="#dbdbdd" stroke="#dbdbdd"></path><path d="M701 477L698 399L607 409Z" fill="#dddee0" stroke="#dddee0"></path><path d="M611 191L500 291L604 322Z" fill="#eaf0ef" stroke="#eaf0ef"></path><path d="M500 291L371 302L381 371Z" fill="#e1e4e6" stroke="#e1e4e6"></path><path d="M378 200L371 302L500 291Z" fill="#e1e4e6" stroke="#e1e4e6"></path><path d="M387 475L487 528L473 400Z" fill="#e1e4e6" stroke="#e1e4e6"></path><path d="M684 321L611 191L604 322Z" fill="#dbdbdd" stroke="#dbdbdd"></path><path d="M325 403L387 475L381 371Z" fill="#e5eaeb" stroke="#e5eaeb"></path><path d="M381 371L387 475L473 400Z" fill="#f5f8f4" stroke="#f5f8f4"></path><path d="M587 600L701 477L574 478Z" fill="#eef3f1" stroke="#eef3f1"></path><path d="M574 478L701 477L607 409Z" fill="#eef3f1" stroke="#eef3f1"></path><path d="M308 197L325 313L371 302Z" fill="#eaf0ef" stroke="#eaf0ef"></path><path d="M371 302L325 313L381 371Z" fill="#e1e4e6" stroke="#e1e4e6"></path><path d="M325 313L325 403L381 371Z" fill="#e3e7e9" stroke="#e3e7e9"></path><path d="M524 184L378 200L500 291Z" fill="#eaf0ef" stroke="#eaf0ef"></path><path d="M611 191L579 128L524 184Z" fill="#eaf0ef" stroke="#eaf0ef"></path><path d="M524 184L391 87L378 200Z" fill="#e1e4e6" stroke="#e1e4e6"></path><path d="M676 89L579 128L611 191Z" fill="#e5eaeb" stroke="#e5eaeb"></path><path d="M771 214L689 178L684 321Z" fill="#eaf0ef" stroke="#eaf0ef"></path><path d="M684 321L689 178L611 191Z" fill="#e7eded" stroke="#e7eded"></path><path d="M404 600L521 600L487 528Z" fill="#dfe1e3" stroke="#dfe1e3"></path><path d="M487 528L521 600L574 478Z" fill="#e7eded" stroke="#e7eded"></path><path d="M521 600L587 600L574 478Z" fill="#dfe1e3" stroke="#dfe1e3"></path><path d="M325 403L307 473L387 475Z" fill="#eef3f1" stroke="#eef3f1"></path><path d="M387 475L404 600L487 528Z" fill="#e1e4e6" stroke="#e1e4e6"></path><path d="M189 402L307 473L325 403Z" fill="#e5eaeb" stroke="#e5eaeb"></path><path d="M701 477L787 427L698 399Z" fill="#f5f8f4" stroke="#f5f8f4"></path><path d="M698 399L787 427L684 321Z" fill="#dbdbdd" stroke="#dbdbdd"></path><path d="M804 476L787 427L701 477Z" fill="#e7eded" stroke="#e7eded"></path><path d="M522 0L513 92L608 0Z" fill="#dddee0" stroke="#dddee0"></path><path d="M579 128L513 92L524 184Z" fill="#dddee0" stroke="#dddee0"></path><path d="M807 272L771 214L684 321Z" fill="#f5f8f4" stroke="#f5f8f4"></path><path d="M689 178L676 89L611 191Z" fill="#e1e4e6" stroke="#e1e4e6"></path><path d="M300 600L404 600L387 475Z" fill="#e5eaeb" stroke="#e5eaeb"></path><path d="M378 200L308 197L371 302Z" fill="#e5eaeb" stroke="#e5eaeb"></path><path d="M325 313L189 402L325 403Z" fill="#e3e7e9" stroke="#e3e7e9"></path><path d="M285 111L308 197L378 200Z" fill="#e3e7e9" stroke="#e3e7e9"></path><path d="M787 427L807 272L684 321Z" fill="#dfe1e3" stroke="#dfe1e3"></path><path d="M728 600L804 476L701 477Z" fill="#eef3f1" stroke="#eef3f1"></path><path d="M787 427L900 326L807 272Z" fill="#f5f8f4" stroke="#f5f8f4"></path><path d="M816 126L676 89L689 178Z" fill="#e1e4e6" stroke="#e1e4e6"></path><path d="M522 0L391 87L513 92Z" fill="#e3e7e9" stroke="#e3e7e9"></path><path d="M513 92L391 87L524 184Z" fill="#eef3f1" stroke="#eef3f1"></path><path d="M587 600L728 600L701 477Z" fill="#f5f8f4" stroke="#f5f8f4"></path><path d="M307 473L300 600L387 475Z" fill="#dfe1e3" stroke="#dfe1e3"></path><path d="M198 502L300 600L307 473Z" fill="#f5f8f4" stroke="#f5f8f4"></path><path d="M728 600L790 600L804 476Z" fill="#e5eaeb" stroke="#e5eaeb"></path><path d="M180 304L189 402L325 313Z" fill="#dbdbdd" stroke="#dbdbdd"></path><path d="M391 87L285 111L378 200Z" fill="#eef3f1" stroke="#eef3f1"></path><path d="M308 197L180 304L325 313Z" fill="#eaf0ef" stroke="#eaf0ef"></path><path d="M608 0L513 92L579 128Z" fill="#eaf0ef" stroke="#eaf0ef"></path><path d="M391 87L289 0L285 111Z" fill="#eef3f1" stroke="#eef3f1"></path><path d="M187 196L180 304L308 197Z" fill="#dddee0" stroke="#dddee0"></path><path d="M771 214L816 126L689 178Z" fill="#eaf0ef" stroke="#eaf0ef"></path><path d="M676 89L608 0L579 128Z" fill="#eaf0ef" stroke="#eaf0ef"></path><path d="M900 228L816 126L771 214Z" fill="#eaf0ef" stroke="#eaf0ef"></path><path d="M900 228L771 214L807 272Z" fill="#eaf0ef" stroke="#eaf0ef"></path><path d="M900 410L787 427L804 476Z" fill="#e5eaeb" stroke="#e5eaeb"></path><path d="M900 410L900 326L787 427Z" fill="#eef3f1" stroke="#eef3f1"></path><path d="M715 0L608 0L676 89Z" fill="#e5eaeb" stroke="#e5eaeb"></path><path d="M900 504L900 410L804 476Z" fill="#dfe1e3" stroke="#dfe1e3"></path><path d="M112 494L198 502L189 402Z" fill="#e5eaeb" stroke="#e5eaeb"></path><path d="M189 402L198 502L307 473Z" fill="#e5eaeb" stroke="#e5eaeb"></path><path d="M285 111L187 196L308 197Z" fill="#dbdbdd" stroke="#dbdbdd"></path><path d="M900 326L900 228L807 272Z" fill="#f5f8f4" stroke="#f5f8f4"></path><path d="M522 0L381 0L391 87Z" fill="#e7eded" stroke="#e7eded"></path><path d="M285 111L190 125L187 196Z" fill="#e7eded" stroke="#e7eded"></path><path d="M790 600L900 504L804 476Z" fill="#e7eded" stroke="#e7eded"></path><path d="M809 0L715 0L816 126Z" fill="#f5f8f4" stroke="#f5f8f4"></path><path d="M816 126L715 0L676 89Z" fill="#dddee0" stroke="#dddee0"></path><path d="M198 502L207 600L300 600Z" fill="#eef3f1" stroke="#eef3f1"></path><path d="M208 0L190 125L285 111Z" fill="#e1e4e6" stroke="#e1e4e6"></path><path d="M85 401L189 402L180 304Z" fill="#f5f8f4" stroke="#f5f8f4"></path><path d="M381 0L289 0L391 87Z" fill="#f1f5f2" stroke="#f1f5f2"></path><path d="M790 600L900 600L900 504Z" fill="#e5eaeb" stroke="#e5eaeb"></path><path d="M85 401L112 494L189 402Z" fill="#e5eaeb" stroke="#e5eaeb"></path><path d="M198 502L116 600L207 600Z" fill="#f5f8f4" stroke="#f5f8f4"></path><path d="M119 201L180 304L187 196Z" fill="#e3e7e9" stroke="#e3e7e9"></path><path d="M106 120L119 201L190 125Z" fill="#e7eded" stroke="#e7eded"></path><path d="M190 125L119 201L187 196Z" fill="#e5eaeb" stroke="#e5eaeb"></path><path d="M900 82L809 0L816 126Z" fill="#e5eaeb" stroke="#e5eaeb"></path><path d="M87 290L85 401L180 304Z" fill="#e3e7e9" stroke="#e3e7e9"></path><path d="M119 201L87 290L180 304Z" fill="#e1e4e6" stroke="#e1e4e6"></path><path d="M900 228L900 82L816 126Z" fill="#e1e4e6" stroke="#e1e4e6"></path><path d="M0 600L116 600L112 494Z" fill="#e7eded" stroke="#e7eded"></path><path d="M112 494L116 600L198 502Z" fill="#dbdbdd" stroke="#dbdbdd"></path><path d="M289 0L208 0L285 111Z" fill="#f5f8f4" stroke="#f5f8f4"></path><path d="M105 0L106 120L190 125Z" fill="#e5eaeb" stroke="#e5eaeb"></path><path d="M0 185L0 299L87 290Z" fill="#e5eaeb" stroke="#e5eaeb"></path><path d="M900 82L900 0L809 0Z" fill="#eaf0ef" stroke="#eaf0ef"></path><path d="M0 185L87 290L119 201Z" fill="#eaf0ef" stroke="#eaf0ef"></path><path d="M87 290L0 299L85 401Z" fill="#e3e7e9" stroke="#e3e7e9"></path><path d="M85 401L0 487L112 494Z" fill="#eaf0ef" stroke="#eaf0ef"></path><path d="M0 299L0 428L85 401Z" fill="#eaf0ef" stroke="#eaf0ef"></path><path d="M0 428L0 487L85 401Z" fill="#dddee0" stroke="#dddee0"></path><path d="M208 0L105 0L190 125Z" fill="#eaf0ef" stroke="#eaf0ef"></path><path d="M106 120L0 185L119 201Z" fill="#e1e4e6" stroke="#e1e4e6"></path><path d="M0 119L0 185L106 120Z" fill="#dbdbdd" stroke="#dbdbdd"></path><path d="M105 0L0 119L106 120Z" fill="#dfe1e3" stroke="#dfe1e3"></path><path d="M0 487L0 600L112 494Z" fill="#e5eaeb" stroke="#e5eaeb"></path><path d="M105 0L0 0L0 119Z" fill="#e5eaeb" stroke="#e5eaeb"></path></g></svg>