<svg id="visual" viewBox="0 0 900 600" width="900" height="600" xmlns="http://www.w3.org/2000/svg" xmlns:xlink="http://www.w3.org/1999/xlink" version="1.1"><g stroke-width="1" stroke-linejoin="bevel"><path d="M489 301L416 321L410 391Z" fill="#29263a" stroke="#29263a"></path><path d="M410 391L518 424L489 301Z" fill="#29263a" stroke="#29263a"></path><path d="M410 391L480 485L518 424Z" fill="#272336" stroke="#272336"></path><path d="M588 502L592 407L518 424Z" fill="#29263a" stroke="#29263a"></path><path d="M518 424L592 407L489 301Z" fill="#38344d" stroke="#38344d"></path><path d="M410 391L424 497L480 485Z" fill="#3a3650" stroke="#3a3650"></path><path d="M609 318L498 221L489 301Z" fill="#2e2a40" stroke="#2e2a40"></path><path d="M489 301L498 221L416 321Z" fill="#2e2a40" stroke="#2e2a40"></path><path d="M592 407L609 318L489 301Z" fill="#272336" stroke="#272336"></path><path d="M378 207L308 282L416 321Z" fill="#3a3650" stroke="#3a3650"></path><path d="M416 321L282 394L410 391Z" fill="#2c283d" stroke="#2c283d"></path><path d="M410 391L285 511L424 497Z" fill="#242133" stroke="#242133"></path><path d="M498 221L378 207L416 321Z" fill="#221f30" stroke="#221f30"></path><path d="M480 485L588 502L518 424Z" fill="#3a3650" stroke="#3a3650"></path><path d="M592 407L708 383L609 318Z" fill="#272336" stroke="#272336"></path><path d="M495 600L588 502L480 485Z" fill="#38344d" stroke="#38344d"></path><path d="M308 282L282 394L416 321Z" fill="#221f30" stroke="#221f30"></path><path d="M609 318L607 202L498 221Z" fill="#221f30" stroke="#221f30"></path><path d="M498 221L486 82L378 207Z" fill="#38344d" stroke="#38344d"></path><path d="M378 207L301 213L308 282Z" fill="#272336" stroke="#272336"></path><path d="M308 282L191 328L282 394Z" fill="#221f30" stroke="#221f30"></path><path d="M282 394L285 511L410 391Z" fill="#2e2a40" stroke="#2e2a40"></path><path d="M424 497L495 600L480 485Z" fill="#302c43" stroke="#302c43"></path><path d="M409 600L495 600L424 497Z" fill="#3a3650" stroke="#3a3650"></path><path d="M686 479L592 407L588 502Z" fill="#2e2a40" stroke="#2e2a40"></path><path d="M686 479L708 383L592 407Z" fill="#35314a" stroke="#35314a"></path><path d="M609 318L724 304L607 202Z" fill="#3a3650" stroke="#3a3650"></path><path d="M315 600L409 600L424 497Z" fill="#302c43" stroke="#302c43"></path><path d="M603 600L686 479L588 502Z" fill="#332f46" stroke="#332f46"></path><path d="M708 383L724 304L609 318Z" fill="#35314a" stroke="#35314a"></path><path d="M495 600L603 600L588 502Z" fill="#35314a" stroke="#35314a"></path><path d="M227 184L191 328L308 282Z" fill="#2e2a40" stroke="#2e2a40"></path><path d="M282 394L176 503L285 511Z" fill="#2e2a40" stroke="#2e2a40"></path><path d="M191 328L188 386L282 394Z" fill="#272336" stroke="#272336"></path><path d="M619 113L498 221L607 202Z" fill="#29263a" stroke="#29263a"></path><path d="M619 113L486 82L498 221Z" fill="#302c43" stroke="#302c43"></path><path d="M378 207L319 111L301 213Z" fill="#242133" stroke="#242133"></path><path d="M219 600L315 600L285 511Z" fill="#332f46" stroke="#332f46"></path><path d="M285 511L315 600L424 497Z" fill="#242133" stroke="#242133"></path><path d="M414 75L319 111L378 207Z" fill="#302c43" stroke="#302c43"></path><path d="M301 213L227 184L308 282Z" fill="#3a3650" stroke="#3a3650"></path><path d="M486 82L414 75L378 207Z" fill="#302c43" stroke="#302c43"></path><path d="M726 171L619 113L607 202Z" fill="#3a3650" stroke="#3a3650"></path><path d="M319 111L227 184L301 213Z" fill="#242133" stroke="#242133"></path><path d="M724 304L726 171L607 202Z" fill="#242133" stroke="#242133"></path><path d="M110 378L176 503L188 386Z" fill="#38344d" stroke="#38344d"></path><path d="M188 386L176 503L282 394Z" fill="#2e2a40" stroke="#2e2a40"></path><path d="M603 600L701 600L686 479Z" fill="#332f46" stroke="#332f46"></path><path d="M796 489L810 398L708 383Z" fill="#272336" stroke="#272336"></path><path d="M708 383L810 398L724 304Z" fill="#332f46" stroke="#332f46"></path><path d="M176 503L219 600L285 511Z" fill="#38344d" stroke="#38344d"></path><path d="M796 489L708 383L686 479Z" fill="#35314a" stroke="#35314a"></path><path d="M724 304L790 186L726 171Z" fill="#332f46" stroke="#332f46"></path><path d="M701 600L796 489L686 479Z" fill="#38344d" stroke="#38344d"></path><path d="M810 398L815 299L724 304Z" fill="#242133" stroke="#242133"></path><path d="M191 328L110 378L188 386Z" fill="#38344d" stroke="#38344d"></path><path d="M176 503L96 600L219 600Z" fill="#242133" stroke="#242133"></path><path d="M74 327L110 378L191 328Z" fill="#221f30" stroke="#221f30"></path><path d="M616 0L498 0L486 82Z" fill="#221f30" stroke="#221f30"></path><path d="M486 82L498 0L414 75Z" fill="#2c283d" stroke="#2c283d"></path><path d="M414 75L324 0L319 111Z" fill="#242133" stroke="#242133"></path><path d="M616 0L486 82L619 113Z" fill="#2e2a40" stroke="#2e2a40"></path><path d="M790 186L723 102L726 171Z" fill="#2c283d" stroke="#2c283d"></path><path d="M726 171L723 102L619 113Z" fill="#272336" stroke="#272336"></path><path d="M498 0L396 0L414 75Z" fill="#221f30" stroke="#221f30"></path><path d="M319 111L189 112L227 184Z" fill="#35314a" stroke="#35314a"></path><path d="M815 299L790 186L724 304Z" fill="#35314a" stroke="#35314a"></path><path d="M220 0L189 112L319 111Z" fill="#2e2a40" stroke="#2e2a40"></path><path d="M111 176L74 327L191 328Z" fill="#332f46" stroke="#332f46"></path><path d="M396 0L324 0L414 75Z" fill="#38344d" stroke="#38344d"></path><path d="M675 0L616 0L619 113Z" fill="#302c43" stroke="#302c43"></path><path d="M701 600L775 600L796 489Z" fill="#242133" stroke="#242133"></path><path d="M111 176L191 328L227 184Z" fill="#221f30" stroke="#221f30"></path><path d="M110 378L71 527L176 503Z" fill="#272336" stroke="#272336"></path><path d="M189 112L111 176L227 184Z" fill="#3a3650" stroke="#3a3650"></path><path d="M110 91L111 176L189 112Z" fill="#35314a" stroke="#35314a"></path><path d="M822 0L675 0L723 102Z" fill="#29263a" stroke="#29263a"></path><path d="M723 102L675 0L619 113Z" fill="#332f46" stroke="#332f46"></path><path d="M0 471L71 527L110 378Z" fill="#302c43" stroke="#302c43"></path><path d="M810 398L900 386L815 299Z" fill="#332f46" stroke="#332f46"></path><path d="M815 299L900 182L790 186Z" fill="#35314a" stroke="#35314a"></path><path d="M900 489L900 386L810 398Z" fill="#35314a" stroke="#35314a"></path><path d="M900 489L810 398L796 489Z" fill="#2e2a40" stroke="#2e2a40"></path><path d="M324 0L220 0L319 111Z" fill="#35314a" stroke="#35314a"></path><path d="M900 386L900 302L815 299Z" fill="#272336" stroke="#272336"></path><path d="M790 186L822 90L723 102Z" fill="#302c43" stroke="#302c43"></path><path d="M71 527L96 600L176 503Z" fill="#242133" stroke="#242133"></path><path d="M0 310L0 382L74 327Z" fill="#3a3650" stroke="#3a3650"></path><path d="M220 0L110 91L189 112Z" fill="#221f30" stroke="#221f30"></path><path d="M900 182L822 90L790 186Z" fill="#302c43" stroke="#302c43"></path><path d="M900 600L900 489L796 489Z" fill="#332f46" stroke="#332f46"></path><path d="M74 327L0 382L110 378Z" fill="#302c43" stroke="#302c43"></path><path d="M71 527L0 600L96 600Z" fill="#2c283d" stroke="#2c283d"></path><path d="M0 310L74 327L0 198Z" fill="#2c283d" stroke="#2c283d"></path><path d="M0 198L74 327L111 176Z" fill="#38344d" stroke="#38344d"></path><path d="M900 302L900 182L815 299Z" fill="#2e2a40" stroke="#2e2a40"></path><path d="M0 382L0 471L110 378Z" fill="#29263a" stroke="#29263a"></path><path d="M0 127L0 198L111 176Z" fill="#221f30" stroke="#221f30"></path><path d="M775 600L900 600L796 489Z" fill="#38344d" stroke="#38344d"></path><path d="M900 80L822 0L822 90Z" fill="#3a3650" stroke="#3a3650"></path><path d="M822 90L822 0L723 102Z" fill="#3a3650" stroke="#3a3650"></path><path d="M220 0L97 0L110 91Z" fill="#35314a" stroke="#35314a"></path><path d="M110 91L0 127L111 176Z" fill="#332f46" stroke="#332f46"></path><path d="M900 182L900 80L822 90Z" fill="#38344d" stroke="#38344d"></path><path d="M0 0L0 127L110 91Z" fill="#302c43" stroke="#302c43"></path><path d="M0 471L0 600L71 527Z" fill="#3a3650" stroke="#3a3650"></path><path d="M900 80L900 0L822 0Z" fill="#3a3650" stroke="#3a3650"></path><path d="M97 0L0 0L110 91Z" fill="#3a3650" stroke="#3a3650"></path></g></svg>