<svg id="visual" viewBox="0 0 900 600" width="900" height="600" xmlns="http://www.w3.org/2000/svg" xmlns:xlink="http://www.w3.org/1999/xlink" version="1.1"><path d="M0 25L60 25L60 37L120 37L120 13L180 13L180 37L240 37L240 25L300 25L300 43L360 43L360 13L420 13L420 13L480 13L480 19L540 19L540 43L600 43L600 37L660 37L660 31L720 31L720 19L780 19L780 31L840 31L840 31L900 31L900 43L900 0L900 0L840 0L840 0L780 0L780 0L720 0L720 0L660 0L660 0L600 0L600 0L540 0L540 0L480 0L480 0L420 0L420 0L360 0L360 0L300 0L300 0L240 0L240 0L180 0L180 0L120 0L120 0L60 0L60 0L0 0Z" fill="#3a3650"></path><path d="M0 55L60 55L60 61L120 61L120 43L180 43L180 67L240 67L240 61L300 61L300 79L360 79L360 67L420 67L420 31L480 31L480 55L540 55L540 67L600 67L600 73L660 73L660 79L720 79L720 73L780 73L780 61L840 61L840 67L900 67L900 61L900 41L900 29L840 29L840 29L780 29L780 17L720 17L720 29L660 29L660 35L600 35L600 41L540 41L540 17L480 17L480 11L420 11L420 11L360 11L360 41L300 41L300 23L240 23L240 35L180 35L180 11L120 11L120 35L60 35L60 23L0 23Z" fill="#37334c"></path><path d="M0 139L60 139L60 133L120 133L120 97L180 97L180 109L240 109L240 133L300 133L300 145L360 145L360 127L420 127L420 109L480 109L480 115L540 115L540 163L600 163L600 139L660 139L660 151L720 151L720 109L780 109L780 109L840 109L840 151L900 151L900 91L900 59L900 65L840 65L840 59L780 59L780 71L720 71L720 77L660 77L660 71L600 71L600 65L540 65L540 53L480 53L480 29L420 29L420 65L360 65L360 77L300 77L300 59L240 59L240 65L180 65L180 41L120 41L120 59L60 59L60 53L0 53Z" fill="#353149"></path><path d="M0 169L60 169L60 175L120 175L120 115L180 115L180 139L240 139L240 181L300 181L300 163L360 163L360 175L420 175L420 133L480 133L480 157L540 157L540 187L600 187L600 187L660 187L660 193L720 193L720 139L780 139L780 145L840 145L840 199L900 199L900 109L900 89L900 149L840 149L840 107L780 107L780 107L720 107L720 149L660 149L660 137L600 137L600 161L540 161L540 113L480 113L480 107L420 107L420 125L360 125L360 143L300 143L300 131L240 131L240 107L180 107L180 95L120 95L120 131L60 131L60 137L0 137Z" fill="#322e45"></path><path d="M0 217L60 217L60 211L120 211L120 181L180 181L180 181L240 181L240 199L300 199L300 187L360 187L360 229L420 229L420 181L480 181L480 199L540 199L540 235L600 235L600 241L660 241L660 253L720 253L720 175L780 175L780 169L840 169L840 247L900 247L900 163L900 107L900 197L840 197L840 143L780 143L780 137L720 137L720 191L660 191L660 185L600 185L600 185L540 185L540 155L480 155L480 131L420 131L420 173L360 173L360 161L300 161L300 179L240 179L240 137L180 137L180 113L120 113L120 173L60 173L60 167L0 167Z" fill="#2f2b42"></path><path d="M0 295L60 295L60 259L120 259L120 289L180 289L180 289L240 289L240 271L300 271L300 229L360 229L360 283L420 283L420 271L480 271L480 253L540 253L540 313L600 313L600 337L660 337L660 325L720 325L720 253L780 253L780 253L840 253L840 307L900 307L900 247L900 161L900 245L840 245L840 167L780 167L780 173L720 173L720 251L660 251L660 239L600 239L600 233L540 233L540 197L480 197L480 179L420 179L420 227L360 227L360 185L300 185L300 197L240 197L240 179L180 179L180 179L120 179L120 209L60 209L60 215L0 215Z" fill="#2d293e"></path><path d="M0 367L60 367L60 325L120 325L120 331L180 331L180 313L240 313L240 337L300 337L300 307L360 307L360 349L420 349L420 325L480 325L480 307L540 307L540 355L600 355L600 361L660 361L660 349L720 349L720 319L780 319L780 295L840 295L840 337L900 337L900 313L900 245L900 305L840 305L840 251L780 251L780 251L720 251L720 323L660 323L660 335L600 335L600 311L540 311L540 251L480 251L480 269L420 269L420 281L360 281L360 227L300 227L300 269L240 269L240 287L180 287L180 287L120 287L120 257L60 257L60 293L0 293Z" fill="#2a263b"></path><path d="M0 433L60 433L60 463L120 463L120 487L180 487L180 385L240 385L240 409L300 409L300 397L360 397L360 451L420 451L420 469L480 469L480 397L540 397L540 523L600 523L600 457L660 457L660 457L720 457L720 481L780 481L780 475L840 475L840 415L900 415L900 379L900 311L900 335L840 335L840 293L780 293L780 317L720 317L720 347L660 347L660 359L600 359L600 353L540 353L540 305L480 305L480 323L420 323L420 347L360 347L360 305L300 305L300 335L240 335L240 311L180 311L180 329L120 329L120 323L60 323L60 365L0 365Z" fill="#272437"></path><path d="M0 463L60 463L60 493L120 493L120 529L180 529L180 403L240 403L240 445L300 445L300 409L360 409L360 475L420 475L420 493L480 493L480 421L540 421L540 535L600 535L600 475L660 475L660 469L720 469L720 523L780 523L780 499L840 499L840 439L900 439L900 403L900 377L900 413L840 413L840 473L780 473L780 479L720 479L720 455L660 455L660 455L600 455L600 521L540 521L540 395L480 395L480 467L420 467L420 449L360 449L360 395L300 395L300 407L240 407L240 383L180 383L180 485L120 485L120 461L60 461L60 431L0 431Z" fill="#252133"></path><path d="M0 601L60 601L60 601L120 601L120 601L180 601L180 601L240 601L240 601L300 601L300 601L360 601L360 601L420 601L420 601L480 601L480 601L540 601L540 601L600 601L600 601L660 601L660 601L720 601L720 601L780 601L780 601L840 601L840 601L900 601L900 601L900 401L900 437L840 437L840 497L780 497L780 521L720 521L720 467L660 467L660 473L600 473L600 533L540 533L540 419L480 419L480 491L420 491L420 473L360 473L360 407L300 407L300 443L240 443L240 401L180 401L180 527L120 527L120 491L60 491L60 461L0 461Z" fill="#221f30"></path></svg>