<svg id="visual" viewBox="0 0 960 540" width="960" height="540" xmlns="http://www.w3.org/2000/svg" xmlns:xlink="http://www.w3.org/1999/xlink" version="1.1"><path d="M0 28L69 28L69 33L137 33L137 23L206 23L206 50L274 50L274 28L343 28L343 50L411 50L411 50L480 50L480 28L549 28L549 33L617 33L617 17L686 17L686 33L754 33L754 39L823 39L823 23L891 23L891 28L960 28L960 28L960 0L960 0L891 0L891 0L823 0L823 0L754 0L754 0L686 0L686 0L617 0L617 0L549 0L549 0L480 0L480 0L411 0L411 0L343 0L343 0L274 0L274 0L206 0L206 0L137 0L137 0L69 0L69 0L0 0Z" fill="#f5f8f4"></path><path d="M0 158L69 158L69 136L137 136L137 131L206 131L206 104L274 104L274 174L343 174L343 195L411 195L411 201L480 201L480 93L549 93L549 136L617 136L617 120L686 120L686 125L754 125L754 82L823 82L823 71L891 71L891 120L960 120L960 104L960 26L960 26L891 26L891 21L823 21L823 37L754 37L754 31L686 31L686 15L617 15L617 31L549 31L549 26L480 26L480 48L411 48L411 48L343 48L343 26L274 26L274 48L206 48L206 21L137 21L137 31L69 31L69 26L0 26Z" fill="#f0f5f2"></path><path d="M0 190L69 190L69 158L137 158L137 168L206 168L206 163L274 163L274 195L343 195L343 228L411 228L411 244L480 244L480 125L549 125L549 174L617 174L617 152L686 152L686 147L754 147L754 125L823 125L823 104L891 104L891 141L960 141L960 125L960 102L960 118L891 118L891 69L823 69L823 80L754 80L754 123L686 123L686 118L617 118L617 134L549 134L549 91L480 91L480 199L411 199L411 193L343 193L343 172L274 172L274 102L206 102L206 129L137 129L137 134L69 134L69 156L0 156Z" fill="#ecf1f0"></path><path d="M0 287L69 287L69 228L137 228L137 228L206 228L206 260L274 260L274 266L343 266L343 325L411 325L411 293L480 293L480 201L549 201L549 217L617 217L617 244L686 244L686 228L754 228L754 228L823 228L823 201L891 201L891 206L960 206L960 158L960 123L960 139L891 139L891 102L823 102L823 123L754 123L754 145L686 145L686 150L617 150L617 172L549 172L549 123L480 123L480 242L411 242L411 226L343 226L343 193L274 193L274 161L206 161L206 166L137 166L137 156L69 156L69 188L0 188Z" fill="#e8eeed"></path><path d="M0 320L69 320L69 249L137 249L137 244L206 244L206 276L274 276L274 287L343 287L343 341L411 341L411 309L480 309L480 244L549 244L549 255L617 255L617 282L686 282L686 271L754 271L754 249L823 249L823 233L891 233L891 239L960 239L960 201L960 156L960 204L891 204L891 199L823 199L823 226L754 226L754 226L686 226L686 242L617 242L617 215L549 215L549 199L480 199L480 291L411 291L411 323L343 323L343 264L274 264L274 258L206 258L206 226L137 226L137 226L69 226L69 285L0 285Z" fill="#e5eaeb"></path><path d="M0 384L69 384L69 298L137 298L137 271L206 271L206 298L274 298L274 336L343 336L343 374L411 374L411 379L480 379L480 293L549 293L549 303L617 303L617 325L686 325L686 320L754 320L754 287L823 287L823 271L891 271L891 309L960 309L960 266L960 199L960 237L891 237L891 231L823 231L823 247L754 247L754 269L686 269L686 280L617 280L617 253L549 253L549 242L480 242L480 307L411 307L411 339L343 339L343 285L274 285L274 274L206 274L206 242L137 242L137 247L69 247L69 318L0 318Z" fill="#e2e6e8"></path><path d="M0 401L69 401L69 341L137 341L137 298L206 298L206 314L274 314L274 390L343 390L343 390L411 390L411 401L480 401L480 336L549 336L549 352L617 352L617 347L686 347L686 363L754 363L754 325L823 325L823 309L891 309L891 357L960 357L960 314L960 264L960 307L891 307L891 269L823 269L823 285L754 285L754 318L686 318L686 323L617 323L617 301L549 301L549 291L480 291L480 377L411 377L411 372L343 372L343 334L274 334L274 296L206 296L206 269L137 269L137 296L69 296L69 382L0 382Z" fill="#e0e2e5"></path><path d="M0 503L69 503L69 471L137 471L137 449L206 449L206 476L274 476L274 455L343 455L343 465L411 465L411 498L480 498L480 482L549 482L549 487L617 487L617 465L686 465L686 514L754 514L754 471L823 471L823 471L891 471L891 498L960 498L960 498L960 312L960 355L891 355L891 307L823 307L823 323L754 323L754 361L686 361L686 345L617 345L617 350L549 350L549 334L480 334L480 399L411 399L411 388L343 388L343 388L274 388L274 312L206 312L206 296L137 296L137 339L69 339L69 399L0 399Z" fill="#dedfe1"></path><path d="M0 541L69 541L69 541L137 541L137 541L206 541L206 541L274 541L274 541L343 541L343 541L411 541L411 541L480 541L480 541L549 541L549 541L617 541L617 541L686 541L686 541L754 541L754 541L823 541L823 541L891 541L891 541L960 541L960 541L960 496L960 496L891 496L891 469L823 469L823 469L754 469L754 512L686 512L686 463L617 463L617 485L549 485L549 480L480 480L480 496L411 496L411 463L343 463L343 453L274 453L274 474L206 474L206 447L137 447L137 469L69 469L69 501L0 501Z" fill="#dbdbdd"></path></svg>